<svg xmlns="http://www.w3.org/2000/svg" width="96" height="96" viewBox="0 0 96 96">
  <g id="Icon_feather-copy" data-name="Icon feather-copy" transform="translate(-0.5 -0.5)">
    <path id="Path_47" data-name="Path 47" d="M22.6,13.5H63.55a9.1,9.1,0,0,1,9.1,9.1V63.55a9.1,9.1,0,0,1-9.1,9.1H22.6a9.1,9.1,0,0,1-9.1-9.1V22.6A9.1,9.1,0,0,1,22.6,13.5Z" transform="translate(21.35 21.35)" fill="none" stroke="#2ebcbc" stroke-linecap="round" stroke-linejoin="round" stroke-width="5"/>
    <path id="Path_48" data-name="Path 48" d="M16.65,62.15H12.1A9.1,9.1,0,0,1,3,53.05V12.1A9.1,9.1,0,0,1,12.1,3H53.05a9.1,9.1,0,0,1,9.1,9.1v4.55" transform="translate(0)" fill="none" stroke="#2ebcbc" stroke-linecap="round" stroke-linejoin="round" stroke-width="5"/>
  </g>
</svg>
