<svg xmlns="http://www.w3.org/2000/svg" width="495.864" height="443.788" viewBox="0 0 495.864 443.788"><g transform="translate(-2 -2)"><path d="M58.926,4.5H439.909c30.059,0,54.426,21.777,54.426,48.64V393.62c0,26.863-24.367,48.64-54.426,48.64H58.926C28.867,442.26,4.5,420.483,4.5,393.62V53.14C4.5,26.277,28.867,4.5,58.926,4.5Z" transform="translate(0 0)" fill="none" stroke="#2ebcbc" stroke-linecap="round" stroke-linejoin="round" stroke-width="5"/><path d="M83.46,46.98A36.48,36.48,0,1,1,46.98,10.5,36.48,36.48,0,0,1,83.46,46.98Z" transform="translate(105.167 91.28)" fill="none" stroke="#2ebcbc" stroke-linecap="round" stroke-linejoin="round" stroke-width="5"/><path d="M448.7,136.6,310.822,15,7.5,282.52" transform="translate(45.64 159.74)" fill="none" stroke="#2ebcbc" stroke-linecap="round" stroke-linejoin="round" stroke-width="5"/></g></svg>