<svg xmlns="http://www.w3.org/2000/svg" width="96.446" height="96.426" viewBox="0 0 96.446 96.426">
  <path id="Icon_awesome-instagram" data-name="Icon awesome-instagram" d="M45.515,62.906A15.168,15.168,0,1,1,60.683,47.738,15.2,15.2,0,0,1,45.515,62.906ZM75.243,23.452A5.442,5.442,0,1,1,69.8,18.01,5.429,5.429,0,0,1,75.243,23.452ZM90.7,28.975c-.345-7.29-2.01-13.747-7.351-19.067-5.32-5.32-11.777-6.985-19.067-7.351-7.513-.426-30.032-.426-37.545,0-7.269.345-13.727,2.01-19.067,7.33S.68,21.665.315,28.955c-.426,7.513-.426,30.032,0,37.545.345,7.29,2.01,13.747,7.351,19.067s11.777,6.985,19.067,7.351c7.513.426,30.032.426,37.545,0,7.29-.345,13.747-2.01,19.067-7.351C88.665,80.247,90.33,73.79,90.7,66.5c.426-7.513.426-30.012,0-37.525Z" transform="translate(2.718 0.475)" fill="none" stroke="#2ebcbc" stroke-width="5"/>
</svg>
