<svg xmlns="http://www.w3.org/2000/svg" width="136.444" height="96" viewBox="0 0 136.444 96">
  <g id="Icon_ionic-ios-mail" data-name="Icon ionic-ios-mail" transform="translate(-0.875 -5.375)">
    <path id="Path_49" data-name="Path 49" d="M133.745,10.508l-34,34.631a.611.611,0,0,0,0,.885l23.793,25.341a4.1,4.1,0,0,1,0,5.814,4.119,4.119,0,0,1-5.814,0l-23.7-25.246a.648.648,0,0,0-.916,0l-5.782,5.877a25.441,25.441,0,0,1-18.137,7.647,25.951,25.951,0,0,1-18.516-7.868l-5.561-5.656a.648.648,0,0,0-.916,0L20.5,77.178a4.119,4.119,0,0,1-5.814,0,4.1,4.1,0,0,1,0-5.814L38.48,46.023a.673.673,0,0,0,0-.885L4.449,10.508a.623.623,0,0,0-1.074.442V80.243A10.141,10.141,0,0,0,13.486,90.354H124.708a10.141,10.141,0,0,0,10.111-10.111V10.95A.632.632,0,0,0,133.745,10.508Z" transform="translate(0 8.521)" fill="none" stroke="#2ebcbc" stroke-width="5"/>
    <path id="Path_50" data-name="Path 50" d="M66.125,65.73a17.178,17.178,0,0,0,12.355-5.182l49.576-50.461A9.931,9.931,0,0,0,121.8,7.875H10.482a9.865,9.865,0,0,0-6.256,2.212L53.8,60.548A17.18,17.18,0,0,0,66.125,65.73Z" transform="translate(2.972)" fill="none" stroke="#2ebcbc" stroke-width="5"/>
  </g>
</svg>
