<svg xmlns="http://www.w3.org/2000/svg" width="134.611" height="89.233" viewBox="0 0 134.611 89.233">
  <g id="Icon_ionic-ios-people" data-name="Icon ionic-ios-people" transform="translate(0.285 -5.248)">
    <path id="Path_42" data-name="Path 42" d="M75.335,72.554C72.1,71.4,66.819,71.341,64.481,70.447c-1.617-.635-4.186-1.328-5.023-2.338s-.837-8.227-.837-8.227a13.29,13.29,0,0,0,2.858-4.041c.837-2.107,1.386-7.938,1.386-7.938s1.905.808,2.656-3c.635-3.291,1.847-5.023,1.53-7.448C66.7,35.027,65.376,35.6,65.376,35.6s1.674-2.454,1.674-10.8c0-8.6-6.495-17.06-18.648-17.06-12.124,0-18.677,8.487-18.677,17.06,0,8.342,1.645,10.8,1.645,10.8s-1.357-.577-1.674,1.847c-.346,2.425.866,4.157,1.53,7.448.751,3.839,2.656,3,2.656,3s.548,5.8,1.386,7.938a13.29,13.29,0,0,0,2.858,4.041s0,7.217-.837,8.227-3.406,1.7-5.023,2.309c-2.309.895-7.592,1.01-10.854,2.165a20.372,20.372,0,0,0-13.221,19.4H88.527A20.332,20.332,0,0,0,75.335,72.554Z" transform="translate(18.56 0)" fill="none" stroke="#2ebcbc" stroke-width="5"/>
    <path id="Path_43" data-name="Path 43" d="M33.535,47.753s6.9-.231,9.641-2.685C38.7,38.285,41.127,30.375,40.2,22.985c-.924-7.361-5.109-11.778-13.481-11.778h-.115c-8.083,0-12.441,4.388-13.365,11.778-.924,7.361,1.645,16.165-2.944,22.083,2.742,2.483,9.67,2.4,9.67,2.4h0s.289,4.157-.289,4.85A7.289,7.289,0,0,1,16.215,53.9,66.977,66.977,0,0,0,8.739,55.98c-2.252.779-6.524,4.965-6.524,10.738h23.18c.635-2.309,4.994-6.437,9.237-8.6,2.6-1.328,5.167-1.241,7.13-1.5,0,0,1.1-1.732-2.511-2.4,0,0-4.965-1.241-5.542-1.934C33.16,51.65,33.535,47.753,33.535,47.753Z" transform="translate(0 10.743)" fill="none" stroke="#2ebcbc" stroke-width="5"/>
    <path id="Path_44" data-name="Path 44" d="M33.449,47.753s-6.9-.231-9.641-2.685c4.474-6.784,2.05-14.693,2.973-22.083.924-7.361,5.109-11.778,13.481-11.778h.115c8.083,0,12.441,4.388,13.365,11.778.924,7.361-1.645,16.165,2.944,22.083-2.742,2.483-9.67,2.4-9.67,2.4h0s-.289,4.157.289,4.85A7.289,7.289,0,0,0,50.769,53.9a66.978,66.978,0,0,1,7.476,2.078c2.252.779,6.524,4.965,6.524,10.738H41.59c-.635-2.309-4.994-6.437-9.237-8.6-2.6-1.328-5.167-1.241-7.13-1.5,0,0-1.1-1.732,2.511-2.4,0,0,4.965-1.241,5.542-1.934C33.825,51.65,33.449,47.753,33.449,47.753Z" transform="translate(67.056 10.743)" fill="none" stroke="#2ebcbc" stroke-width="5"/>
  </g>
</svg>
