<svg xmlns="http://www.w3.org/2000/svg" width="229.923" height="122.567" viewBox="0 0 229.923 122.567"><g transform="translate(1.5 1.5)"><path d="M96.93,89.377V10.7c0-5.091-5.088-9.257-11.306-9.257H17.786C11.568,1.44,6.48,5.605,6.48,10.7V98.633c0,5.091,5.088,9.257,11.306,9.257H85.624c5.252,0,11.306,0,11.306-4.628v-2.314H20.613c-3.109,0-5.653-2.083-5.653-4.628V89.377H96.93ZM20.613,19.953a2.617,2.617,0,0,1,2.827-2.314H79.971A2.617,2.617,0,0,1,82.8,19.953v4.628A2.617,2.617,0,0,1,79.971,26.9H23.439a2.617,2.617,0,0,1-2.827-2.314V19.953Zm0,18.513a2.617,2.617,0,0,1,2.827-2.314H79.971A2.617,2.617,0,0,1,82.8,38.466v4.628a2.617,2.617,0,0,1-2.827,2.314H23.439a2.617,2.617,0,0,1-2.827-2.314V38.466Z" transform="translate(-6.48 11.677)" fill="none" stroke="#007a7a" stroke-width="3"/><path d="M36.159,69.1H28.695v52.248h7.464a3.743,3.743,0,0,0,3.732-3.732V72.836A3.743,3.743,0,0,0,36.159,69.1Zm52.248,0a3.743,3.743,0,0,0-3.732,3.732V117.62a3.743,3.743,0,0,0,3.732,3.732h7.464V69.1Zm33.588-7.464A59.712,59.712,0,1,0,6.146,82.032a26.13,26.13,0,0,0,18.817,39.054V69.372a25.964,25.964,0,0,0-10.234,3.776,48.514,48.514,0,1,1,95.112,0A25.972,25.972,0,0,0,99.6,69.37v51.716a26.129,26.129,0,0,0,18.818-39.052,59.6,59.6,0,0,0,3.574-20.394Z" transform="translate(104.928 -1.928)" fill="none" stroke="#007a7a" stroke-width="3"/></g></svg>