<svg xmlns="http://www.w3.org/2000/svg" width="97.06" height="97.012" viewBox="0 0 97.06 97.012">
  <path id="Icon_simple-whatsapp" data-name="Icon simple-whatsapp" d="M66.347,54.532c-1.141-.569-6.7-3.287-7.735-3.663s-1.793-.569-2.552.569c-.747,1.119-2.923,3.655-3.579,4.406s-1.323.8-2.449.284A30.773,30.773,0,0,1,40.92,50.5a34.4,34.4,0,0,1-6.294-7.849c-.66-1.138-.072-1.763.493-2.332.516-.512,1.141-1.308,1.71-1.983a9.612,9.612,0,0,0,1.126-1.881,2.084,2.084,0,0,0-.095-1.987c-.284-.569-2.548-6.143-3.5-8.364-.91-2.214-1.847-1.934-2.548-1.934-.652-.057-1.407-.057-2.165-.057a4.274,4.274,0,0,0-3.022,1.361,12.659,12.659,0,0,0-3.962,9.384c0,5.517,4.057,10.863,4.622,11.659.565.739,7.981,12.114,19.338,17.006,2.707,1.138,4.815,1.82,6.461,2.385a15.687,15.687,0,0,0,7.128.459c2.176-.345,6.7-2.734,7.644-5.407.967-2.673.967-4.891.682-5.4s-1.024-.8-2.161-1.308m11.424-41.17A46.038,46.038,0,0,0,45.671,0,45.082,45.082,0,0,0,6.431,67.636L0,91l24.02-6.264a45.736,45.736,0,0,0,21.65,5.487h.023A45.273,45.273,0,0,0,91,45.117,44.72,44.72,0,0,0,77.748,13.225" transform="translate(3.56 2.5)" fill="none" stroke="#2ebcbc" stroke-width="5"/>
</svg>
