<svg xmlns="http://www.w3.org/2000/svg" width="253.867" height="67.651" viewBox="0 0 253.867 67.651"><path d="M142.416,38.22h-9.5a2.745,2.745,0,0,0-2.269,1.2L117.53,58.733l-5.555-18.555a2.749,2.749,0,0,0-2.63-1.957H100A1.647,1.647,0,0,0,98.444,40.4l10.465,30.72L99.066,85.005a1.646,1.646,0,0,0,1.345,2.6h9.495a2.759,2.759,0,0,0,2.257-1.178L143.77,40.8a1.646,1.646,0,0,0-1.353-2.584ZM78.878,56.625a10.543,10.543,0,0,1-10.673,9.03,7.328,7.328,0,0,1-7.832-9.2,10.579,10.579,0,0,1,10.6-9.1,7.963,7.963,0,0,1,6.3,2.577,8.143,8.143,0,0,1,1.6,6.687ZM92.056,38.22H82.6a1.648,1.648,0,0,0-1.627,1.391l-.414,2.64-.66-.957c-2.049-2.97-6.613-3.965-11.173-3.965-10.446,0-19.37,7.918-21.106,19.022-.9,5.539.378,10.832,3.521,14.526,2.884,3.394,7,4.806,11.906,4.806a18.1,18.1,0,0,0,13.092-5.407L75.718,72.9a1.646,1.646,0,0,0,1.627,1.9H85.86a2.741,2.741,0,0,0,2.711-2.315l5.113-32.37a1.646,1.646,0,0,0-1.627-1.9Zm-56.744.226c-1.079,7.088-6.491,7.088-11.729,7.088H20.6L22.692,32.3a1.643,1.643,0,0,1,1.625-1.389h1.368c3.564,0,6.93,0,8.667,2.028,1.038,1.216,1.353,3.018.959,5.506ZM33.035,19.952H13.287a2.743,2.743,0,0,0-2.711,2.318L2.591,72.9a1.646,1.646,0,0,0,1.625,1.9h9.431a2.742,2.742,0,0,0,2.709-2.315l2.155-13.661a2.743,2.743,0,0,1,2.709-2.318h6.248c13.008,0,20.515-6.293,22.475-18.771C50.825,32.287,49.977,28,47.424,25c-2.805-3.3-7.784-5.047-14.389-5.047Zm211.009,1.391-8.1,51.56a1.646,1.646,0,0,0,1.625,1.9h8.151a2.74,2.74,0,0,0,2.709-2.318l7.992-50.634a1.646,1.646,0,0,0-1.627-1.9h-9.119a1.646,1.646,0,0,0-1.627,1.391ZM219.721,56.625a10.544,10.544,0,0,1-10.673,9.03,7.328,7.328,0,0,1-7.832-9.2,10.58,10.58,0,0,1,10.6-9.1,7.963,7.963,0,0,1,6.3,2.577,8.143,8.143,0,0,1,1.6,6.687ZM232.9,38.22h-9.457a1.648,1.648,0,0,0-1.627,1.391l-.414,2.643-.663-.957c-2.046-2.97-6.611-3.965-11.17-3.965-10.447,0-19.37,7.918-21.106,19.022-.9,5.539.378,10.832,3.521,14.526,2.884,3.394,7,4.806,11.906,4.806a18.1,18.1,0,0,0,13.092-5.407l-.421,2.627a1.646,1.646,0,0,0,1.627,1.9H226.7a2.741,2.741,0,0,0,2.711-2.315l5.113-32.37a1.648,1.648,0,0,0-1.627-1.9Zm-56.744.226c-1.079,7.088-6.491,7.088-11.729,7.088h-2.977L163.538,32.3a1.643,1.643,0,0,1,1.625-1.389h1.368c3.564,0,6.93,0,8.667,2.028,1.036,1.216,1.35,3.018.957,5.506Zm-2.277-18.494H154.129a2.743,2.743,0,0,0-2.711,2.318L143.434,72.9a1.647,1.647,0,0,0,1.625,1.9H155.19a1.921,1.921,0,0,0,1.9-1.619l2.267-14.356a2.743,2.743,0,0,1,2.709-2.318h6.248c13.008,0,20.515-6.293,22.475-18.771.883-5.453.036-9.741-2.518-12.741-2.805-3.3-7.784-5.047-14.389-5.047Z" transform="translate(-2.571 -19.952)" fill="#2ebcbc"/></svg>