<svg xmlns="http://www.w3.org/2000/svg" width="202.331" height="83.443" viewBox="0 0 202.331 83.443"><path d="M52.147,15.264,38.456,18.173,38.393,63.2c0,8.316,6.261,13.691,14.576,13.691,4.616,0,8-.854,9.865-1.866V64.337c-1.8.727-10.656,3.32-10.656-4.964V39.389H62.834V27.437H52.179ZM80.32,31.579l-.854-4.142H67.324V75.878H81.332v-32.6c3.32-4.363,8.917-3.51,10.719-2.941v-12.9c-1.9-.664-8.442-1.9-11.731,4.142ZM109.5,8.719l-14.1,3V23.169l14.1-3ZM14.172,41.7c0-2.182,1.834-3.035,4.775-3.067a31.459,31.459,0,0,1,13.976,3.6V29.018a37.471,37.471,0,0,0-13.944-2.561C7.6,26.457.007,32.4.007,42.33c0,15.557,21.343,13.027,21.343,19.73,0,2.593-2.245,3.447-5.375,3.447-4.648,0-10.656-1.929-15.367-4.49V73.665a38.91,38.91,0,0,0,15.335,3.194c11.667,0,19.7-5,19.7-15.114,0-16.727-21.469-13.723-21.469-20.047ZM202.338,52.227c0-14.387-6.956-25.738-20.3-25.738S160.569,37.84,160.569,52.132c0,16.916,9.581,24.726,23.24,24.726a31.454,31.454,0,0,0,15.557-3.636V62.661a29.7,29.7,0,0,1-13.786,3.1c-5.47,0-10.276-1.929-10.909-8.506h27.477c.063-.727.19-3.668.19-5.027Zm-27.793-5.312c0-6.324,3.889-8.98,7.4-8.98,3.447,0,7.114,2.656,7.114,8.98Zm-35.7-20.426a15.825,15.825,0,0,0-11,4.4l-.727-3.478H114.753V92.162l14.039-2.972.032-15.873a15.73,15.73,0,0,0,9.928,3.541c10.055,0,19.225-7.336,19.225-25.169.032-16.316-9.264-25.2-19.13-25.2ZM135.5,65.222a8.433,8.433,0,0,1-6.608-2.656L128.792,41.7a8.424,8.424,0,0,1,6.7-2.782c5.122,0,8.664,5.755,8.664,13.09C144.191,59.562,140.713,65.222,135.5,65.222ZM95.434,75.878h14.1V27.437h-14.1Z" transform="translate(-0.007 -8.719)" fill="#2ebcbc"/></svg>